PathFileType	3	(X/Y/Z)	RCH0000002 BBF 03.c3d
DataRate	CameraRate	NumFrames	NumMarkers	Units	OrigDataRate	OrigDataStartFrame	OrigNumFrames
100.0	100.0	5	23	mm	100.0	449	376
Frame#	Time	T2			T10			LASI			LPSI			RPSI			LANK			LMED			LTOE			RPAT			RANK			RMED			RHEE			RTOE			MAN			LPAT			RKNE			LKNE			RASI			LHEE			RTHI			LTHI			RTIB			LTIB			
		X1	Y1	Z1	X2	Y2	Z2	X3	Y3	Z3	X4	Y4	Z4	X5	Y5	Z5	X6	Y6	Z6	X7	Y7	Z7	X8	Y8	Z8	X9	Y9	Z9	X10	Y10	Z10	X11	Y11	Z11	X12	Y12	Z12	X13	Y13	Z13	X14	Y14	Z14	X15	Y15	Z15	X16	Y16	Z16	X17	Y17	Z17	X18	Y18	Z18	X19	Y19	Z19	X20	Y20	Z20	X21	Y21	Z21	X22	Y22	Z22	X23	Y23	Z23	

449	4.480	452.54191	10.59619	973.72353	462.36603	2.68954	785.48335	535.85144	112.11939	646.11777	443.47046	27.36639	691.50854	459.40447	-40.67263	685.54932	296.17697	127.34197	91.34307	307.02982	59.50793	110.33477	343.60696	92.24856	73.40905	689.31462	4.33215	403.91108	639.80778	-84.00219	88.02495	618.03707	-17.57186	93.75883	587.30883	-59.87598	114.52863	678.86943	-41.81738	80.44715	582.49375	22.56278	941.22123	479.32681	77.21127	363.37435	661.77459	-53.81254	356.18065	420.80679	130.93103	340.77542	582.92271	-59.53355	637.90764	269.25199	88.50840	134.40526	638.63215	-127.08999	462.91266	446.49248	196.76220	465.36669	662.24981	-132.20704	249.97563	360.87149	194.09570	235.62670	
450	4.490	462.39756	7.89751	972.15645	472.71160	2.15328	784.01995	545.62816	112.30797	644.21502	453.59244	27.37273	689.83215	469.90676	-40.62134	684.68316	300.00426	127.03137	93.50114	310.83033	59.11985	111.88440	346.26224	91.69147	73.82952	695.74912	5.82710	399.73016	644.86817	-84.98746	84.80098	622.34831	-18.77052	90.84631	592.28977	-61.50325	111.59681	683.38221	-42.34482	77.59639	592.30749	21.39717	940.34694	490.59772	76.42793	360.63733	668.54658	-53.20453	352.80626	431.54793	129.74708	338.44546	593.59461	-59.16430	637.05322	274.32431	88.32941	137.33483	648.21721	-126.09072	460.36142	456.28661	195.78704	463.09343	669.37822	-132.11231	246.83027	369.59930	193.18721	235.31110	
451	4.500	472.22312	5.32972	970.65576	483.18186	1.90063	782.64491	555.56488	112.38847	642.17265	463.77390	27.58636	688.33553	480.41957	-40.38819	684.23285	304.65930	126.63173	95.89336	315.29044	58.61946	113.61178	349.50614	90.96864	74.38058	701.87531	6.77094	395.87262	648.38203	-86.21120	82.05075	625.24887	-20.18848	88.50592	595.89608	-63.30638	109.31273	686.38048	-43.17004	75.14929	602.12185	20.30681	939.66590	502.75748	75.33882	357.74970	674.82547	-53.03283	349.79008	443.26106	128.30292	335.84743	604.20603	-58.91710	636.54294	280.26702	88.11032	140.50869	657.40404	-125.50463	458.13800	466.71470	194.57450	460.59314	675.48017	-132.36466	244.00345	379.46345	192.08197	234.87154	
452	4.510	481.99371	2.95449	969.27118	493.71809	1.94214	781.41269	565.62091	112.33358	640.05093	473.96673	27.99524	687.07597	490.88047	-39.98511	684.23514	310.21802	126.15443	98.51901	320.49016	58.01949	115.52658	353.43831	90.10244	75.09671	707.65623	7.10059	392.46656	650.64261	-87.62622	79.80874	627.00484	-21.78493	86.76062	598.37278	-65.24922	107.67003	688.15902	-44.23684	73.14823	611.91113	19.31579	939.19979	515.71478	73.95367	354.80888	680.58328	-53.33346	347.23606	455.87028	126.62838	333.07326	614.69065	-58.82004	636.41522	287.13205	87.85878	143.90527	666.11906	-125.38344	456.31831	477.74717	193.14056	457.95187	680.64102	-132.97803	241.54363	390.41818	190.80004	234.35438	
453	4.520	491.68611	0.82962	968.05365	504.26015	2.27279	780.37810	575.75527	112.11879	637.92356	484.12766	28.57278	686.10637	501.23310	-39.43673	684.70891	316.73273	125.60682	101.37129	326.50778	57.32986	117.62892	358.16001	89.12401	76.01166	713.04924	6.78284	389.59499	651.95240	-89.17786	78.07647	627.89061	-23.51186	85.59876	599.97252	-67.28981	106.62783	689.02016	-45.47999	71.60228	621.65017	18.44801	938.96865	529.35700	72.29739	351.93419	685.79088	-54.12473	345.21043	469.27431	124.76426	330.23988	624.98936	-58.89846	636.69411	294.94868	87.56809	147.49069	674.30014	-125.75706	454.94888	489.33679	191.51268	455.27887	684.95267	-133.95177	239.47481	402.37057	189.36530	233.83064	
